<svg version="1.1" id="Layer_1" xmlns="http://www.w3.org/2000/svg" xmlns:xlink="http://www.w3.org/1999/xlink" x="0px" y="0px"
	 width="100%" viewBox="0 0 355 389" enable-background="new 0 0 355 389" xml:space="preserve">
<path fill="#ffffff" opacity="1.000000" stroke="none" 
	d="
M1.000000,146.000000 
	C1.000000,97.349503 1.000000,49.198997 1.000000,1.024250 
	C119.277443,1.024250 237.554886,1.024250 355.916168,1.024250 
	C355.916168,130.567215 355.916168,260.134491 355.916168,389.850891 
	C237.666809,389.850891 119.333427,389.850891 1.000000,389.850891 
	C1.000000,308.778351 1.000000,227.639175 1.000000,146.000000 
M258.978485,170.022354 
	C258.978485,170.022354 258.908234,170.030548 259.076294,170.543823 
	C259.374695,170.727493 259.673065,170.911179 259.976807,171.024155 
	C259.976807,171.024155 259.906311,171.031906 260.071808,171.543045 
	C260.373260,171.715561 260.674744,171.888092 261.257355,172.624893 
	C262.238434,173.408615 263.219513,174.192337 264.312744,175.382095 
	C264.475555,175.644302 264.711273,175.777603 265.247162,176.255295 
	C265.675751,176.535339 266.104340,176.815384 266.849762,177.645554 
	C267.205261,177.865097 267.560791,178.084641 268.170471,178.903168 
	C274.704041,185.221924 280.989960,191.831619 287.897217,197.711319 
	C290.533234,199.955170 294.593170,200.526199 298.685211,201.998322 
	C299.782166,201.740097 300.879150,201.481857 302.679565,201.215363 
	C303.122314,201.064377 303.565063,200.913391 304.628235,200.708221 
	C305.484802,200.178894 306.341370,199.649551 307.836060,199.056229 
	C308.885559,198.361862 309.935028,197.667496 311.619812,196.871964 
	C312.410828,196.158157 313.201843,195.444351 314.598358,194.509277 
	C317.317200,192.369217 317.214233,190.303833 314.668732,188.008835 
	C314.106293,187.501740 314.258148,186.202362 314.617462,185.039474 
	C314.802216,184.707016 314.986969,184.374557 315.099182,184.047745 
	C315.099182,184.047745 315.134003,184.111649 315.735199,183.793716 
	C317.891754,179.724655 320.554077,175.836578 322.089508,171.545288 
	C324.560425,164.639526 322.929504,160.708176 316.967834,156.597229 
	C293.876343,140.674103 270.777100,124.762260 247.350006,108.267746 
	C245.766891,104.823586 244.183777,101.379425 242.831543,97.134697 
	C243.179291,89.140472 246.590179,82.367859 251.794754,75.726791 
	C252.413239,74.536217 253.031738,73.345634 253.968933,71.595818 
	C254.073776,70.756729 254.178635,69.917641 254.597900,68.546188 
	C254.176956,64.106270 250.574051,62.928875 247.255264,62.236118 
	C243.317871,61.414234 239.190094,61.504456 234.526566,61.050983 
	C233.994675,61.329468 233.462799,61.607952 232.252319,62.130676 
	C231.184769,65.460838 229.350906,68.759567 229.212708,72.127861 
	C228.943268,78.694611 229.623001,85.300301 229.219238,91.919098 
	C228.128677,91.255959 227.038132,90.592812 225.502472,89.538712 
	C224.746918,89.404800 223.991348,89.270889 222.671844,88.727142 
	C220.118988,86.840996 217.566147,84.954849 214.398331,82.813324 
	C213.262466,81.562233 212.126617,80.311134 210.669769,78.484039 
	C208.812332,76.979599 206.954910,75.475159 204.805283,73.360237 
	C188.390793,58.027794 171.976303,42.695351 155.252472,26.902040 
	C147.908264,22.081196 141.387878,25.126101 136.034119,30.024502 
	C131.356247,34.304516 127.871452,39.888504 123.272980,45.333305 
	C122.556541,47.505028 121.686905,49.639660 121.150467,51.854973 
	C118.958115,60.908493 120.635780,65.232994 128.510056,70.116791 
	C145.669922,82.087456 162.829773,94.058121 180.160614,106.451752 
	C180.355789,106.735863 180.622940,106.846947 181.341705,107.200447 
	C181.510590,107.282135 181.679474,107.363831 182.219131,107.967773 
	C186.874863,111.740402 191.530594,115.513039 196.162643,119.935150 
	C198.105637,122.287170 200.048630,124.639183 202.229691,127.536415 
	C202.573853,128.007584 202.918030,128.478729 202.881149,129.528702 
	C177.166351,161.808624 151.451553,194.088531 125.384956,226.810059 
	C105.037895,201.274063 85.006706,176.134491 64.365829,150.229752 
	C64.365829,204.017487 64.365829,256.571136 64.365829,309.453735 
	C65.060539,309.055603 65.550064,308.926117 65.802811,308.608307 
	C73.678398,298.704956 81.699768,288.909119 89.259781,278.769501 
	C90.996078,276.440704 91.795738,272.941254 91.889297,269.945068 
	C92.222000,259.289276 92.048882,248.618073 92.106239,237.952911 
	C92.115715,236.189911 92.320236,234.427963 92.531349,231.175110 
	C98.975754,239.038208 104.493500,245.770645 110.254738,252.800186 
	C116.510017,244.932983 122.411308,237.521225 128.301743,230.100861 
	C154.281509,197.373245 180.258148,164.643188 206.897537,132.003922 
	C209.272247,133.280640 211.646973,134.557358 214.678177,136.154373 
	C216.107361,136.468201 217.536560,136.782028 219.263992,137.696487 
	C220.863037,138.855148 222.527985,139.933624 224.050552,141.185318 
	C235.017136,150.200851 245.954880,159.251465 257.059937,168.706100 
	C257.272583,168.942322 257.537750,169.056137 258.068512,169.546265 
	C258.370514,169.728500 258.672516,169.910721 258.978485,170.022354 
M207.319809,198.500153 
	C207.319809,182.603241 207.319809,166.706329 207.319809,149.468323 
	C205.828186,151.295502 205.227509,152.015533 204.643539,152.748886 
	C175.496048,189.352554 146.343735,225.952362 117.205681,262.563538 
	C91.489380,294.875397 65.787102,327.198456 40.085022,359.521637 
	C37.394657,362.905090 37.414700,362.921021 41.118805,365.131439 
	C67.408340,332.112457 93.721962,299.063232 120.194931,265.813843 
	C125.510178,272.413422 130.505676,278.615997 135.769547,285.151764 
	C150.069656,267.251251 164.273071,249.471802 178.476486,231.692352 
	C178.926407,231.899338 179.376328,232.106323 179.826248,232.313309 
	C179.826248,258.681396 179.826248,285.049469 179.826248,311.554504 
	C189.183655,311.554504 197.946487,311.554504 207.319839,311.554504 
	C207.319839,274.048859 207.319839,236.774506 207.319809,198.500153 
z"/>
<path fill="#EFCD73" opacity="1.000000" stroke="none" 
	d="
M207.319824,199.000153 
	C207.319839,236.774506 207.319839,274.048859 207.319839,311.554504 
	C197.946487,311.554504 189.183655,311.554504 179.826248,311.554504 
	C179.826248,285.049469 179.826248,258.681396 179.826248,232.313309 
	C179.376328,232.106323 178.926407,231.899338 178.476486,231.692352 
	C164.273071,249.471802 150.069656,267.251251 135.769547,285.151764 
	C130.505676,278.615997 125.510178,272.413422 120.194931,265.813843 
	C93.721962,299.063232 67.408340,332.112457 41.118805,365.131439 
	C37.414700,362.921021 37.394657,362.905090 40.085022,359.521637 
	C65.787102,327.198456 91.489380,294.875397 117.205681,262.563538 
	C146.343735,225.952362 175.496048,189.352554 204.643539,152.748886 
	C205.227509,152.015533 205.828186,151.295502 207.319809,149.468323 
	C207.319809,166.706329 207.319809,182.603241 207.319824,199.000153 
z"/>
<path fill="#EDCB72" opacity="1.000000" stroke="none" 
	d="
M206.235916,131.914001 
	C180.258148,164.643188 154.281509,197.373245 128.301743,230.100861 
	C122.411308,237.521225 116.510017,244.932983 110.254738,252.800186 
	C104.493500,245.770645 98.975754,239.038208 92.531349,231.175110 
	C92.320236,234.427963 92.115715,236.189911 92.106239,237.952911 
	C92.048882,248.618073 92.222000,259.289276 91.889297,269.945068 
	C91.795738,272.941254 90.996078,276.440704 89.259781,278.769501 
	C81.699768,288.909119 73.678398,298.704956 65.802811,308.608307 
	C65.550064,308.926117 65.060539,309.055603 64.365829,309.453735 
	C64.365829,256.571136 64.365829,204.017487 64.365829,150.229752 
	C85.006706,176.134491 105.037895,201.274063 125.384956,226.810059 
	C151.451553,194.088531 177.166351,161.808624 203.360535,129.280838 
	C204.229553,129.020142 204.619217,129.007309 205.004730,128.996933 
	C205.000610,128.999390 205.002716,128.990372 205.105560,129.215790 
	C205.411575,129.723526 205.683350,129.900269 206.019913,129.982697 
	C206.016052,129.993912 206.034576,129.966492 206.044098,130.294373 
	C206.114395,131.052826 206.175156,131.483414 206.235916,131.914001 
z"/>
<path fill="#F0D17B" opacity="1.000000" stroke="none" 
	d="
M247.680740,108.846214 
	C270.777100,124.762260 293.876343,140.674103 316.967834,156.597229 
	C322.929504,160.708176 324.560425,164.639526 322.089508,171.545288 
	C320.554077,175.836578 317.891754,179.724655 315.388184,183.565399 
	C313.079651,179.777145 311.709564,175.665436 309.021118,172.783615 
	C304.745880,168.200867 299.811279,164.142105 294.761200,160.392944 
	C285.323975,153.386780 275.603851,146.761703 266.110748,139.726639 
	C266.495209,139.000412 266.770386,138.525620 267.251038,137.840759 
	C267.341064,136.772919 267.225586,135.915161 267.040588,134.714020 
	C264.980164,132.588043 262.989288,130.805466 260.804688,128.800934 
	C260.061829,128.399185 259.512634,128.219421 258.981201,128.019653 
	C258.998901,127.999664 258.982117,128.050262 258.746704,127.802574 
	C255.673157,125.682655 252.834991,123.810432 249.833817,121.643242 
	C248.148483,118.592697 246.626160,115.837128 245.373505,112.910484 
	C246.322372,111.441689 247.001556,110.143951 247.680740,108.846214 
z"/>
<path fill="#F2D581" opacity="1.000000" stroke="none" 
	d="
M155.561813,27.362907 
	C171.976303,42.695351 188.390793,58.027794 204.681702,73.974014 
	C204.376617,75.388466 204.200287,76.190361 204.012604,76.989594 
	C203.479446,79.260124 202.941650,81.529572 202.405655,83.799438 
	C199.992142,82.900627 197.272873,82.446831 195.213882,81.032059 
	C179.798737,70.440071 163.797607,60.588730 150.845734,46.577770 
	C151.432877,45.478973 151.924728,44.709515 152.553055,43.807686 
	C152.850189,43.470772 152.951019,43.240074 153.046860,42.706451 
	C153.197754,42.267960 153.293808,42.106239 153.533310,41.792488 
	C153.842178,41.405205 153.933243,41.144028 153.973419,40.537971 
	C154.154160,39.824821 154.311462,39.430634 154.763535,38.900772 
	C156.538666,36.277828 158.210678,33.801224 155.320953,30.809544 
	C155.045929,30.358871 154.935776,30.178698 154.880188,29.657681 
	C155.143768,28.665527 155.352783,28.014217 155.561813,27.362907 
z"/>
<path fill="#F1CC6E" opacity="1.000000" stroke="none" 
	d="
M266.001434,139.978058 
	C275.603851,146.761703 285.323975,153.386780 294.761200,160.392944 
	C299.811279,164.142105 304.745880,168.200867 309.021118,172.783615 
	C311.709564,175.665436 313.079651,179.777145 315.087585,183.724365 
	C315.134003,184.111649 315.099182,184.047745 314.900818,184.198853 
	C314.495331,184.655899 314.288208,184.961868 314.081055,185.267822 
	C314.258148,186.202362 314.106293,187.501740 314.668732,188.008835 
	C317.214233,190.303833 317.317200,192.369217 314.353973,194.315353 
	C313.165283,192.005829 312.791138,189.190643 311.187683,187.883804 
	C296.619415,176.010651 281.794769,164.452774 267.149017,152.673462 
	C263.888336,150.050964 261.036438,146.920258 258.335052,143.946457 
	C259.792664,143.592667 260.911591,143.315948 262.198608,143.324921 
	C276.602386,155.248276 290.838074,166.885910 305.073730,178.523560 
	C305.371063,178.179214 305.668365,177.834869 305.965698,177.490509 
	C294.043365,163.635773 279.177002,153.072784 264.828735,141.770081 
	C264.860992,141.573547 264.890076,141.176270 265.029053,140.936401 
	C265.445831,140.457047 265.723633,140.217560 266.001434,139.978058 
z"/>
<path fill="#E1AD4B" opacity="1.000000" stroke="none" 
	d="
M179.989639,106.028793 
	C162.829773,94.058121 145.669922,82.087456 128.518799,69.720940 
	C130.433167,68.673714 132.338821,68.022339 134.576599,67.321075 
	C135.563812,67.111656 136.218903,66.952141 137.164978,66.907959 
	C137.651764,67.095528 137.847549,67.167747 138.051239,67.589630 
	C139.964066,70.088829 141.519211,72.764893 143.831635,74.300934 
	C157.077667,83.099640 170.444183,91.721642 183.890884,100.211838 
	C191.863205,105.245537 199.912766,110.199852 208.227875,114.625710 
	C211.376541,116.301651 215.368744,116.392784 218.785950,117.354233 
	C218.179077,117.743874 217.762695,117.985558 216.917999,118.186981 
	C211.057159,119.734375 206.005249,118.851486 201.266953,115.834328 
	C197.761658,113.602295 194.384750,111.098061 190.671890,109.286362 
	C188.007935,107.986465 185.443237,104.774399 181.848358,107.445518 
	C181.679474,107.363831 181.510590,107.282135 181.032410,106.817352 
	C180.522705,106.219368 180.278214,106.084213 179.989639,106.028793 
z"/>
<path fill="#EFCD73" opacity="1.000000" stroke="none" 
	d="
M150.750443,46.907104 
	C163.797607,60.588730 179.798737,70.440071 195.213882,81.032059 
	C197.272873,82.446831 199.992142,82.900627 202.405655,83.799438 
	C202.941650,81.529572 203.479446,79.260124 204.012604,76.989594 
	C204.200287,76.190361 204.376617,75.388466 204.827820,74.279259 
	C206.954910,75.475159 208.812332,76.979599 210.832336,79.177597 
	C211.854172,82.997978 212.920212,86.088547 213.477829,89.268257 
	C213.724121,90.672707 213.406998,92.766083 212.486557,93.613235 
	C211.626633,94.404663 209.516205,94.359192 208.157501,93.973267 
	C205.674194,93.267921 203.339462,92.039444 200.707092,91.028831 
	C200.471405,91.028519 200.000427,91.010323 199.918442,90.681694 
	C198.889282,89.901802 197.942123,89.450539 196.862335,88.803192 
	C196.525055,88.361229 196.281952,88.162338 195.944397,87.664856 
	C192.258209,84.874748 188.628036,82.430206 184.859329,79.734917 
	C184.151855,78.990921 183.582932,78.497681 182.848633,77.713943 
	C180.699432,74.992561 178.867432,72.219193 175.004669,74.014359 
	C175.001892,74.007507 175.001892,74.009895 174.999985,73.680023 
	C174.993698,72.911003 174.989304,72.471855 174.929382,71.683266 
	C173.584869,70.553566 172.295914,69.773323 170.923248,68.656906 
	C168.564957,67.212242 166.290344,66.103745 163.891861,64.747581 
	C163.507141,64.011688 163.246292,63.523472 162.909531,62.702888 
	C161.884796,61.917683 160.935989,61.464840 159.993896,61.006393 
	C160.000610,61.000782 159.988739,61.016705 159.910736,60.687119 
	C158.887558,59.904453 157.942352,59.451374 156.864380,58.802807 
	C156.526474,58.362389 156.282791,58.165134 155.918701,57.686207 
	C154.888458,56.906895 153.940018,56.456932 152.995789,56.003593 
	C153.000000,56.000225 152.993118,56.010609 152.943176,55.673843 
	C151.349945,53.904911 149.806641,52.472744 148.136566,50.992622 
	C148.009811,50.944668 147.739944,50.919273 147.863510,50.671097 
	C148.110687,50.285515 148.234283,50.148109 148.512451,49.901299 
	C148.854385,49.611580 148.980942,49.395607 149.149246,48.875389 
	C149.751389,48.040245 150.250916,47.473675 150.750443,46.907104 
z"/>
<path fill="#EBBD57" opacity="1.000000" stroke="none" 
	d="
M310.984528,196.973145 
	C309.935028,197.667496 308.885559,198.361862 307.253845,198.824936 
	C306.095947,196.908142 306.021698,194.650818 304.860718,193.632797 
	C298.722931,188.250656 292.311615,183.180511 285.748535,178.000214 
	C285.501953,177.998245 285.008789,177.994614 284.951782,177.653549 
	C284.480347,176.603455 284.229584,175.683105 283.627289,175.216568 
	C271.441772,165.777557 259.215912,156.390640 246.999863,146.596771 
	C247.035873,145.403900 247.070190,144.607544 247.494232,143.847427 
	C248.926010,143.954590 249.968048,144.025513 251.067413,144.431152 
	C253.621048,147.101242 255.922089,149.698624 258.645844,151.728867 
	C274.540558,163.576584 290.553345,175.265747 306.479004,187.072220 
	C309.735107,189.486130 311.532135,192.740753 310.984528,196.973145 
z"/>
<path fill="#DA9639" opacity="1.000000" stroke="none" 
	d="
M298.004181,201.859589 
	C294.593170,200.526199 290.533234,199.955170 287.897217,197.711319 
	C280.989960,191.831619 274.704041,185.221924 267.879150,178.334839 
	C267.236206,177.542816 266.884552,177.319122 266.532928,177.095428 
	C266.104340,176.815384 265.675751,176.535339 265.014954,175.867020 
	C264.610352,175.286102 264.416290,175.118530 264.200592,174.976044 
	C263.219513,174.192337 262.238434,173.408615 260.981995,172.130020 
	C260.439880,171.434067 260.173096,171.232986 259.906311,171.031906 
	C259.906311,171.031906 259.976807,171.024155 259.841187,170.840973 
	C259.439819,170.448715 259.174011,170.239639 258.908234,170.030548 
	C258.908234,170.030548 258.978485,170.022354 258.834686,169.838654 
	C258.412415,169.452484 258.133972,169.250015 257.855499,169.047546 
	C257.537750,169.056137 257.272583,168.942322 256.971039,168.164368 
	C256.918182,166.416382 256.954254,165.210129 257.310364,164.147552 
	C259.339996,165.248901 261.228577,165.985443 262.729919,167.200455 
	C271.953766,174.665329 281.260529,182.044281 290.171783,189.870758 
	C293.746185,193.010010 298.224518,196.034042 298.004181,201.859589 
z"/>
<path fill="#EFC461" opacity="1.000000" stroke="none" 
	d="
M311.302185,196.922546 
	C311.532135,192.740753 309.735107,189.486130 306.479004,187.072220 
	C290.553345,175.265747 274.540558,163.576584 258.645844,151.728867 
	C255.922089,149.698624 253.621048,147.101242 251.502655,144.394653 
	C253.919159,144.023483 255.957748,144.023514 257.996338,144.023544 
	C261.036438,146.920258 263.888336,150.050964 267.149017,152.673462 
	C281.794769,164.452774 296.619415,176.010651 311.187683,187.883804 
	C312.791138,189.190643 313.165283,192.005829 314.051208,194.425995 
	C313.201843,195.444351 312.410828,196.158157 311.302185,196.922546 
z"/>
<path fill="#E3A63F" opacity="1.000000" stroke="none" 
	d="
M298.344696,201.928955 
	C298.224518,196.034042 293.746185,193.010010 290.171783,189.870758 
	C281.260529,182.044281 271.953766,174.665329 262.729919,167.200455 
	C261.228577,165.985443 259.339996,165.248901 257.236511,163.817688 
	C255.548141,162.104218 254.365433,160.714981 252.941010,159.648590 
	C243.884018,152.868195 234.751999,146.187912 225.709229,139.388824 
	C224.614594,138.565781 223.906738,137.228317 223.302383,135.980042 
	C224.360992,135.503708 225.136841,135.176620 226.084595,135.157242 
	C228.710587,137.657166 230.999939,140.078659 233.657349,141.987823 
	C237.635498,144.845856 241.872360,147.343765 246.252991,150.113968 
	C247.004669,150.490555 247.502533,150.748032 248.066010,151.309738 
	C248.754044,152.073944 249.376465,152.533920 250.248840,152.997635 
	C250.498779,153.001373 250.998703,153.007751 251.055023,153.348907 
	C256.740967,158.124069 262.370605,162.558060 268.131287,167.194611 
	C268.468506,167.651154 268.717651,167.851730 269.172058,168.292267 
	C276.620331,174.760239 284.062775,180.762299 291.134949,187.172867 
	C295.532623,191.159149 301.442230,194.180405 301.976105,201.223633 
	C300.879150,201.481857 299.782166,201.740097 298.344696,201.928955 
z"/>
<path fill="#C15411" opacity="1.000000" stroke="none" 
	d="
M155.407135,27.132473 
	C155.352783,28.014217 155.143768,28.665527 154.552795,29.500443 
	C145.035492,26.322443 134.666763,31.243479 131.607574,40.844830 
	C133.993073,39.405964 135.980011,38.078243 138.081467,36.967136 
	C142.324524,34.723679 142.350189,34.772217 143.195816,36.207195 
	C139.071060,39.231434 135.119629,42.128605 130.931091,45.134789 
	C130.468964,45.503025 130.243927,45.762249 130.014404,46.008354 
	C130.009949,45.995232 130.033035,46.016613 129.759720,46.248962 
	C128.654251,49.658035 127.822090,52.834763 126.646011,56.110191 
	C125.552818,58.137794 124.803543,60.066704 123.793625,61.687958 
	C123.431709,58.919209 123.202148,56.455006 123.261787,53.997822 
	C123.335487,50.960972 123.649422,47.929947 123.859566,44.896408 
	C127.871452,39.888504 131.356247,34.304516 136.034119,30.024502 
	C141.387878,25.126101 147.908264,22.081196 155.407135,27.132473 
z"/>
<path fill="#E7B757" opacity="1.000000" stroke="none" 
	d="
M200.000427,91.010323 
	C200.000427,91.010323 200.471405,91.028519 200.778900,91.373482 
	C204.517319,94.101334 207.697906,97.060799 211.455139,98.692047 
	C214.696243,100.099213 217.464050,98.416893 216.962845,94.245834 
	C216.512299,90.496178 215.678223,86.792595 215.013306,83.068695 
	C217.566147,84.954849 220.118988,86.840996 223.090622,89.122543 
	C223.943726,89.713791 224.378067,89.909637 224.878372,90.328621 
	C224.944351,90.551758 225.002197,91.013535 224.616745,91.096268 
	C223.506500,92.229141 222.145721,93.290283 222.163681,94.327553 
	C222.256256,99.675407 220.830261,104.309158 216.537231,107.985062 
	C212.829514,105.282578 209.458359,102.629745 205.910767,99.697189 
	C204.499573,98.598793 203.264771,97.780113 202.023346,96.966980 
	C202.016693,96.972519 202.045990,96.952438 201.880981,96.662430 
	C198.804459,93.580574 195.892960,90.788734 193.359039,87.999199 
	C194.491211,88.004478 195.245804,88.007446 196.000412,88.010422 
	C196.281952,88.162338 196.525055,88.361229 197.019867,89.080109 
	C198.206818,90.038849 199.103622,90.524590 200.000427,91.010323 
z"/>
<path fill="#D54D49" opacity="1.000000" stroke="none" 
	d="
M225.912689,134.849518 
	C225.136841,135.176620 224.360992,135.503708 222.936966,135.945419 
	C221.181107,136.405289 220.073425,136.750565 218.965744,137.095840 
	C217.536560,136.782028 216.107361,136.468201 214.258606,135.673462 
	C211.237534,133.450531 208.636063,131.708511 206.034576,129.966492 
	C206.034576,129.966492 206.016052,129.993912 205.901794,129.770111 
	C205.582474,129.281189 205.320862,129.095871 205.002716,128.990372 
	C205.002716,128.990372 205.000610,128.999390 204.909653,128.750595 
	C204.536453,128.059387 204.254227,127.616982 204.400543,127.137207 
	C209.504593,125.707329 214.180069,124.314827 219.184418,123.067719 
	C222.992172,126.152496 226.471100,129.091858 229.824036,132.253937 
	C229.394669,132.890091 229.091293,133.303543 228.472168,133.760193 
	C227.408508,134.152115 226.660599,134.500824 225.912689,134.849518 
z"/>
<path fill="#F6BABA" opacity="1.000000" stroke="none" 
	d="
M253.650238,72.155060 
	C253.031738,73.345634 252.413239,74.536217 251.133240,75.931625 
	C248.331818,77.856133 244.829300,79.234367 244.297424,81.356979 
	C242.404694,88.910400 242.050278,89.715347 233.912170,90.573822 
	C234.597153,86.797020 235.342667,83.434052 236.412781,79.934677 
	C237.841019,76.867737 238.944672,73.937195 240.241425,70.874481 
	C240.664520,70.526413 240.852066,70.278435 241.412994,69.996872 
	C243.885010,69.662460 245.941223,69.329552 248.329407,68.994820 
	C249.103745,69.008110 249.546112,69.023216 250.082260,69.383011 
	C251.334122,70.536819 252.492188,71.345940 253.650238,72.155060 
z"/>
<path fill="#E97C84" opacity="1.000000" stroke="none" 
	d="
M247.515381,108.556976 
	C247.001556,110.143951 246.322372,111.441689 244.997467,112.738571 
	C241.573624,112.490356 238.795486,112.242989 235.800812,111.941757 
	C235.584274,111.887886 235.149811,111.786369 235.082550,111.397453 
	C234.385742,107.054535 233.756195,103.100533 233.308105,99.058876 
	C233.489563,98.971214 233.891357,98.939407 234.299713,98.932526 
	C237.338928,98.595528 239.969788,98.265396 242.600662,97.935265 
	C244.183777,101.379425 245.766891,104.823586 247.515381,108.556976 
z"/>
<path fill="#D89C40" opacity="1.000000" stroke="none" 
	d="
M219.114868,137.396164 
	C220.073425,136.750565 221.181107,136.405289 222.654205,136.094650 
	C223.906738,137.228317 224.614594,138.565781 225.709229,139.388824 
	C234.751999,146.187912 243.884018,152.868195 252.941010,159.648590 
	C254.365433,160.714981 255.548141,162.104218 256.916473,163.674026 
	C256.954254,165.210129 256.918182,166.416382 256.891968,167.956787 
	C245.954880,159.251465 235.017136,150.200851 224.050552,141.185318 
	C222.527985,139.933624 220.863037,138.855148 219.114868,137.396164 
z"/>
<path fill="#A51611" opacity="1.000000" stroke="none" 
	d="
M233.891357,98.939407 
	C233.891357,98.939407 233.489563,98.971214 232.929474,98.953674 
	C231.549484,96.587387 230.729568,94.238625 229.909668,91.889870 
	C229.623001,85.300301 228.943268,78.694611 229.212708,72.127861 
	C229.350906,68.759567 231.184769,65.460838 232.736603,62.326687 
	C233.180786,64.361923 233.140686,66.201141 233.073212,68.445236 
	C234.059937,72.590424 235.074066,76.330750 236.088181,80.071075 
	C235.342667,83.434052 234.597153,86.797020 233.751205,90.895355 
	C233.730957,94.066948 233.811157,96.503174 233.891357,98.939407 
z"/>
<path fill="#D89C40" opacity="1.000000" stroke="none" 
	d="
M182.033752,107.706650 
	C185.443237,104.774399 188.007935,107.986465 190.671890,109.286362 
	C194.384750,111.098061 197.761658,113.602295 201.266953,115.834328 
	C206.005249,118.851486 211.057159,119.734375 216.726013,118.489761 
	C212.284622,119.968216 207.606903,121.103645 202.580765,122.172791 
	C200.217010,121.166222 198.201675,120.225945 196.186325,119.285675 
	C191.530594,115.513039 186.874863,111.740402 182.033752,107.706650 
z"/>
<path fill="#E97C84" opacity="1.000000" stroke="none" 
	d="
M240.997177,69.998367 
	C240.852066,70.278435 240.664520,70.526413 239.917969,70.880844 
	C238.578308,72.420670 237.755219,73.821945 236.932129,75.223221 
	C236.635666,75.228310 236.339203,75.233398 236.042740,75.238487 
	C236.042740,72.530685 236.042740,69.822884 236.243378,66.859032 
	C241.480652,63.486710 236.568497,62.762413 235.144821,61.199394 
	C239.190094,61.504456 243.317871,61.414234 247.255264,62.236118 
	C250.574051,62.928875 254.176956,64.106270 254.011871,68.782028 
	C252.280045,69.024689 251.134262,69.031502 249.988464,69.038330 
	C249.546112,69.023216 249.103745,69.008110 248.043121,68.746887 
	C245.282288,68.999969 243.139740,69.499168 240.997177,69.998367 
M239.510727,67.438881 
	C239.510727,67.438881 239.547195,67.512970 239.510727,67.438881 
z"/>
<path fill="#EFA7A8" opacity="1.000000" stroke="none" 
	d="
M234.299713,98.932526 
	C233.811157,96.503174 233.730957,94.066948 233.811707,91.309189 
	C242.050278,89.715347 242.404694,88.910400 244.297424,81.356979 
	C244.829300,79.234367 248.331818,77.856133 250.849243,76.110260 
	C246.590179,82.367859 243.179291,89.140472 242.716095,97.534981 
	C239.969788,98.265396 237.338928,98.595528 234.299713,98.932526 
z"/>
<path fill="#C34624" opacity="1.000000" stroke="none" 
	d="
M229.564453,91.904480 
	C230.729568,94.238625 231.549484,96.587387 232.748016,99.041336 
	C233.756195,103.100533 234.385742,107.054535 234.720367,111.425415 
	C232.993942,110.360031 231.562439,108.877777 229.787003,107.039375 
	C230.000946,109.082390 229.735077,111.057304 230.456497,112.557419 
	C232.361801,116.519287 234.695160,120.275284 236.503387,124.077988 
	C235.137405,123.561813 234.103851,123.122345 233.118744,122.592758 
	C228.874176,120.310898 228.746002,116.026360 228.021866,111.620163 
	C228.304214,105.766663 228.653061,100.329147 228.787445,94.886353 
	C228.802719,94.268402 227.612579,93.620682 226.845947,92.782990 
	C226.510559,92.313179 226.262421,92.104469 225.974792,91.985046 
	C225.983505,92.017006 226.047897,92.032677 225.924225,91.804527 
	C225.526398,91.373047 225.252243,91.169716 224.972839,90.984604 
	C224.967606,91.002823 225.002197,91.013535 225.002197,91.013535 
	C225.002197,91.013535 224.944351,90.551758 225.161346,90.278809 
	C225.568069,89.980469 225.757828,89.955063 225.947571,89.929665 
	C227.038132,90.592812 228.128677,91.255959 229.564453,91.904480 
z"/>
<path fill="#E1AD4B" opacity="1.000000" stroke="none" 
	d="
M302.327820,201.219498 
	C301.442230,194.180405 295.532623,191.159149 291.134949,187.172867 
	C284.062775,180.762299 276.620331,174.760239 269.535095,168.304718 
	C271.001556,168.675049 272.347717,169.207306 273.518158,169.999237 
	C277.382568,172.613815 281.183502,175.322235 285.008789,177.994614 
	C285.008789,177.994614 285.501953,177.998245 285.803680,178.340912 
	C290.166748,182.651306 294.272217,186.575226 298.274475,190.601700 
	C301.099426,193.443741 304.761963,195.875549 304.007782,200.762390 
	C303.565063,200.913391 303.122314,201.064377 302.327820,201.219498 
z"/>
<path fill="#F1CC6E" opacity="1.000000" stroke="none" 
	d="
M214.705811,82.941010 
	C215.678223,86.792595 216.512299,90.496178 216.962845,94.245834 
	C217.464050,98.416893 214.696243,100.099213 211.455139,98.692047 
	C207.697906,97.060799 204.517319,94.101334 201.014587,91.373795 
	C203.339462,92.039444 205.674194,93.267921 208.157501,93.973267 
	C209.516205,94.359192 211.626633,94.404663 212.486557,93.613235 
	C213.406998,92.766083 213.724121,90.672707 213.477829,89.268257 
	C212.920212,86.088547 211.854172,82.997978 210.992828,79.465607 
	C212.126617,80.311134 213.262466,81.562233 214.705811,82.941010 
z"/>
<path fill="#C3621C" opacity="1.000000" stroke="none" 
	d="
M123.566269,45.114857 
	C123.649422,47.929947 123.335487,50.960972 123.261787,53.997822 
	C123.202148,56.455006 123.431709,58.919209 123.839836,62.010521 
	C125.132019,63.726215 126.117363,64.811691 127.405075,66.147400 
	C129.886459,66.722076 132.065460,67.046516 134.244461,67.370964 
	C132.338821,68.022339 130.433167,68.673714 128.223938,69.528015 
	C120.635780,65.232994 118.958115,60.908493 121.150467,51.854973 
	C121.686905,49.639660 122.556541,47.505028 123.566269,45.114857 
z"/>
<path fill="#E9B54D" opacity="1.000000" stroke="none" 
	d="
M304.317993,200.735306 
	C304.761963,195.875549 301.099426,193.443741 298.274475,190.601700 
	C294.272217,186.575226 290.166748,182.651306 286.050262,178.342865 
	C292.311615,183.180511 298.722931,188.250656 304.860718,193.632797 
	C306.021698,194.650818 306.095947,196.908142 306.934753,198.856934 
	C306.341370,199.649551 305.484802,200.178894 304.317993,200.735306 
z"/>
<path fill="#A51611" opacity="1.000000" stroke="none" 
	d="
M196.174484,119.610413 
	C198.201675,120.225945 200.217010,121.166222 202.729858,122.516609 
	C204.433350,123.291367 205.729630,124.139778 206.829300,123.934570 
	C210.969879,123.161903 215.046448,122.046188 219.191299,121.377945 
	C219.108932,122.105392 218.982254,122.513855 218.855560,122.922318 
	C214.180069,124.314827 209.504593,125.707329 204.072876,127.081856 
	C202.874985,127.039650 202.433304,127.015427 201.991623,126.991203 
	C200.048630,124.639183 198.105637,122.287170 196.174484,119.610413 
z"/>
<path fill="#B93807" opacity="1.000000" stroke="none" 
	d="
M234.835693,61.125187 
	C236.568497,62.762413 241.480652,63.486710 235.927719,66.862213 
	C234.641159,67.427757 233.870880,67.734062 233.100601,68.040375 
	C233.140686,66.201141 233.180786,64.361923 233.075897,62.204567 
	C233.462799,61.607952 233.994675,61.329468 234.835693,61.125187 
z"/>
<path fill="#D97170" opacity="1.000000" stroke="none" 
	d="
M206.044098,130.294373 
	C208.636063,131.708511 211.237534,133.450531 213.930359,135.513306 
	C211.646973,134.557358 209.272247,133.280640 206.566727,131.958954 
	C206.175156,131.483414 206.114395,131.052826 206.044098,130.294373 
z"/>
<path fill="#EFA7A8" opacity="1.000000" stroke="none" 
	d="
M250.082260,69.383011 
	C251.134262,69.031502 252.280045,69.024689 253.854675,69.048210 
	C254.178635,69.917641 254.073776,70.756729 253.809586,71.875443 
	C252.492188,71.345940 251.334122,70.536819 250.082260,69.383011 
z"/>
<path fill="#D97170" opacity="1.000000" stroke="none" 
	d="
M202.110657,127.263809 
	C202.433304,127.015427 202.874985,127.039650 203.644333,127.119217 
	C204.254227,127.616982 204.536453,128.059387 204.913788,128.748138 
	C204.619217,129.007309 204.229553,129.020142 203.551056,128.991425 
	C202.918030,128.478729 202.573853,128.007584 202.110657,127.263809 
z"/>
<path fill="#C3621C" opacity="1.000000" stroke="none" 
	d="
M225.725021,89.734192 
	C225.757828,89.955063 225.568069,89.980469 225.095367,90.055679 
	C224.378067,89.909637 223.943726,89.713791 223.372589,89.327461 
	C223.991348,89.270889 224.746918,89.404800 225.725021,89.734192 
z"/>
<path fill="#F0D17B" opacity="1.000000" stroke="none" 
	d="
M314.349274,185.153656 
	C314.288208,184.961868 314.495331,184.655899 314.937073,184.196014 
	C314.986969,184.374557 314.802216,184.707016 314.349274,185.153656 
z"/>
<path fill="#D89C40" opacity="1.000000" stroke="none" 
	d="
M258.992249,170.287186 
	C259.174011,170.239639 259.439819,170.448715 259.838531,170.876328 
	C259.673065,170.911179 259.374695,170.727493 258.992249,170.287186 
z"/>
<path fill="#D89C40" opacity="1.000000" stroke="none" 
	d="
M259.989075,171.287476 
	C260.173096,171.232986 260.439880,171.434067 260.841431,171.847870 
	C260.674744,171.888092 260.373260,171.715561 259.989075,171.287476 
z"/>
<path fill="#D89C40" opacity="1.000000" stroke="none" 
	d="
M257.962006,169.296906 
	C258.133972,169.250015 258.412415,169.452484 258.832703,169.873947 
	C258.672516,169.910721 258.370514,169.728500 257.962006,169.296906 
z"/>
<path fill="#D89C40" opacity="1.000000" stroke="none" 
	d="
M264.256653,175.179077 
	C264.416290,175.118530 264.610352,175.286102 264.901306,175.630371 
	C264.711273,175.777603 264.475555,175.644302 264.256653,175.179077 
z"/>
<path fill="#D89C40" opacity="1.000000" stroke="none" 
	d="
M266.691345,177.370483 
	C266.884552,177.319122 267.236206,177.542816 267.752075,178.035339 
	C267.560791,178.084641 267.205261,177.865097 266.691345,177.370483 
z"/>
<path fill="#D89C40" opacity="1.000000" stroke="none" 
	d="
M180.075134,106.240273 
	C180.278214,106.084213 180.522705,106.219368 180.842560,106.609619 
	C180.622940,106.846947 180.355789,106.735863 180.075134,106.240273 
z"/>
<path fill="#D97170" opacity="1.000000" stroke="none" 
	d="
M205.105560,129.215790 
	C205.320862,129.095871 205.582474,129.281189 205.905655,129.758881 
	C205.683350,129.900269 205.411575,129.723526 205.105560,129.215790 
z"/>
<path fill="#D97170" opacity="1.000000" stroke="none" 
	d="
M236.017349,111.995621 
	C238.795486,112.242989 241.573624,112.490356 244.727798,112.909637 
	C246.626160,115.837128 248.148483,118.592697 249.489029,121.907417 
	C246.882736,122.698044 244.458237,122.929527 241.766479,123.034721 
	C239.671951,119.270828 237.844650,115.633224 236.017349,111.995621 
z"/>
<path fill="#E97C84" opacity="1.000000" stroke="none" 
	d="
M260.998383,129.022888 
	C262.989288,130.805466 264.980164,132.588043 266.736206,134.908325 
	C264.589233,135.309357 262.631989,134.854492 260.776337,135.117081 
	C258.486023,135.441177 256.280182,136.361969 253.829407,137.051620 
	C253.620987,137.078308 253.202148,137.043945 252.891754,136.813538 
	C251.659637,134.125443 250.737915,131.667755 250.191650,129.026306 
	C253.372116,128.578445 256.177124,128.314346 258.982117,128.050262 
	C258.982117,128.050262 258.998901,127.999664 259.179474,128.234680 
	C259.906158,128.654083 260.452271,128.838486 260.998383,129.022888 
z"/>
<path fill="#F6BABA" opacity="1.000000" stroke="none" 
	d="
M253.202148,137.043945 
	C253.202148,137.043945 253.620987,137.078308 254.283081,137.042694 
	C258.978638,137.354980 263.012085,137.702896 267.045532,138.050812 
	C266.770386,138.525620 266.495209,139.000412 266.110748,139.726654 
	C265.723633,140.217560 265.445831,140.457047 264.611053,140.916138 
	C259.899872,141.415558 255.745651,141.695419 251.702332,141.614426 
	C252.276215,139.850372 252.739182,138.447159 253.202148,137.043945 
z"/>
<path fill="#EFA7A8" opacity="1.000000" stroke="none" 
	d="
M258.746704,127.802574 
	C256.177124,128.314346 253.372116,128.578445 249.937103,128.803741 
	C247.834457,127.552246 246.361816,126.339531 244.571564,124.980270 
	C243.513885,124.276146 242.773804,123.718582 242.033722,123.161011 
	C244.458237,122.929527 246.882736,122.698044 249.652039,122.202385 
	C252.834991,123.810432 255.673157,125.682655 258.746704,127.802574 
z"/>
<path fill="#EFA7A8" opacity="1.000000" stroke="none" 
	d="
M267.251038,137.840759 
	C263.012085,137.702896 258.978638,137.354980 254.491516,137.015991 
	C256.280182,136.361969 258.486023,135.441177 260.776337,135.117081 
	C262.631989,134.854492 264.589233,135.309357 266.805756,135.251694 
	C267.225586,135.915161 267.341064,136.772919 267.251038,137.840759 
z"/>
<path fill="#EFA7A8" opacity="1.000000" stroke="none" 
	d="
M260.804688,128.800934 
	C260.452271,128.838486 259.906158,128.654083 259.161743,128.254669 
	C259.512634,128.219421 260.061829,128.399185 260.804688,128.800934 
z"/>
<path fill="#B93807" opacity="1.000000" stroke="none" 
	d="
M131.168182,45.025772 
	C135.119629,42.128605 139.071060,39.231434 143.195816,36.207195 
	C142.350189,34.772217 142.324524,34.723679 138.081467,36.967136 
	C135.980011,38.078243 133.993073,39.405964 131.607574,40.844830 
	C134.666763,31.243479 145.035492,26.322443 154.498245,29.841286 
	C154.935776,30.178698 155.045929,30.358871 155.233398,31.209526 
	C155.030060,34.265484 154.749405,36.650963 154.468750,39.036446 
	C154.311462,39.430634 154.154160,39.824821 153.792694,40.665642 
	C153.381287,41.356037 153.315048,41.633453 153.389847,41.944519 
	C153.293808,42.106239 153.197754,42.267960 152.867432,42.806206 
	C152.414917,43.393402 152.342712,43.645847 152.416580,43.940056 
	C151.924728,44.709515 151.432877,45.478973 150.845734,46.577766 
	C150.250916,47.473675 149.751389,48.040245 148.958115,48.947586 
	C148.424194,49.470570 148.322037,49.711349 148.357895,50.010700 
	C148.234283,50.148109 148.110687,50.285515 147.593445,50.809303 
	C146.242447,51.944160 145.285095,52.692635 144.125519,53.151527 
	C142.942627,51.917393 141.961945,50.972843 141.273087,49.857224 
	C144.381287,46.533333 149.543747,44.542324 147.556412,39.095055 
	C144.698380,41.002052 141.971924,42.608288 139.527802,44.566830 
	C138.664673,45.258465 138.491257,46.810799 137.649017,48.075363 
	C136.541183,51.481422 135.787262,54.782288 134.801056,58.303909 
	C133.412491,57.686520 132.256210,56.848377 131.265045,55.811405 
	C130.993851,55.040195 130.557510,54.467815 130.111069,53.458881 
	C130.078308,50.687088 130.055679,48.351852 130.033035,46.016613 
	C130.033035,46.016613 130.009949,45.995232 130.244293,45.892570 
	C130.708496,45.535194 130.938339,45.280483 131.168182,45.025772 
z"/>
<path fill="#EFCD73" opacity="1.000000" stroke="none" 
	d="
M154.763535,38.900772 
	C154.749405,36.650963 155.030060,34.265484 155.398254,31.480022 
	C158.210678,33.801224 156.538666,36.277828 154.763535,38.900772 
z"/>
<path fill="#EFCD73" opacity="1.000000" stroke="none" 
	d="
M152.553055,43.807690 
	C152.342712,43.645847 152.414917,43.393402 152.812607,43.082973 
	C152.951019,43.240074 152.850189,43.470772 152.553055,43.807690 
z"/>
<path fill="#EFCD73" opacity="1.000000" stroke="none" 
	d="
M153.533310,41.792488 
	C153.315048,41.633453 153.381287,41.356037 153.769257,40.984596 
	C153.933243,41.144028 153.842178,41.405205 153.533310,41.792488 
z"/>
<path fill="#EFC461" opacity="1.000000" stroke="none" 
	d="
M264.796448,141.966599 
	C279.177002,153.072784 294.043365,163.635773 305.965698,177.490509 
	C305.668365,177.834869 305.371063,178.179214 305.073730,178.523560 
	C290.838074,166.885910 276.602386,155.248276 262.489288,143.252228 
	C263.340057,142.584747 264.068237,142.275665 264.796448,141.966599 
z"/>
<path fill="#E97C84" opacity="1.000000" stroke="none" 
	d="
M264.828735,141.770081 
	C264.068237,142.275665 263.340057,142.584747 262.321167,142.966522 
	C260.911591,143.315948 259.792664,143.592667 258.335052,143.946457 
	C255.957748,144.023514 253.919159,144.023483 251.445328,144.059937 
	C249.968048,144.025513 248.926010,143.954590 247.511780,143.692963 
	C247.139572,143.502258 247.159271,143.188904 247.492676,143.131821 
	C248.627060,142.720108 249.428055,142.365494 250.457092,142.022156 
	C250.685150,142.033447 251.136276,141.973206 251.136276,141.973206 
	C251.136276,141.973206 251.591415,141.975266 251.591415,141.975266 
	C255.745651,141.695419 259.899872,141.415558 264.472107,141.155991 
	C264.890076,141.176270 264.860992,141.573547 264.828735,141.770081 
z"/>
<path fill="#EBBD57" opacity="1.000000" stroke="none" 
	d="
M218.976456,117.206291 
	C215.368744,116.392784 211.376541,116.301651 208.227875,114.625710 
	C199.912766,110.199852 191.863205,105.245537 183.890884,100.211838 
	C170.444183,91.721642 157.077667,83.099640 143.831635,74.300934 
	C141.519211,72.764893 139.964066,70.088829 138.266479,67.409622 
	C138.626740,66.552734 138.779678,66.225517 139.003845,65.706207 
	C139.075058,65.514114 139.172256,65.116074 139.530365,65.121857 
	C140.602600,65.156235 141.316711,65.184814 142.024384,65.592819 
	C141.554092,69.750420 143.876053,71.624611 146.742355,73.405197 
	C162.516388,83.204269 178.129059,93.266953 194.006943,102.893051 
	C200.074371,106.571472 206.603928,109.552986 213.140137,112.343185 
	C214.626358,112.977623 217.013733,111.501060 219.137787,110.939850 
	C219.289261,110.883553 219.598083,110.788307 219.866440,110.934471 
	C221.192230,112.418365 222.249664,113.756096 223.120651,115.324722 
	C221.614960,116.105835 220.295715,116.656067 218.976456,117.206291 
z"/>
<path fill="#A51611" opacity="1.000000" stroke="none" 
	d="
M139.172256,65.116074 
	C139.172256,65.116074 139.075058,65.514114 138.711609,65.733650 
	C137.856781,66.232994 137.365387,66.512810 136.873993,66.792618 
	C136.218903,66.952141 135.563812,67.111656 134.576599,67.321075 
	C132.065460,67.046516 129.886459,66.722076 127.389336,65.750618 
	C127.397324,63.039707 127.723434,60.975819 128.374786,59.009438 
	C132.190765,61.109989 135.681519,63.113033 139.172256,65.116074 
z"/>
<path fill="#C34624" opacity="1.000000" stroke="none" 
	d="
M218.785950,117.354248 
	C220.295715,116.656067 221.614960,116.105835 223.459869,115.303688 
	C224.673477,115.057816 225.361389,115.063858 226.008911,115.400581 
	C224.590576,117.097214 223.212646,118.463165 221.641785,119.656052 
	C220.639359,120.010078 219.829865,120.537178 219.050873,121.035286 
	C219.081360,121.006294 219.146988,121.058960 219.146988,121.058960 
	C215.046448,122.046188 210.969879,123.161903 206.829300,123.934570 
	C205.729630,124.139778 204.433350,123.291367 203.078247,122.582901 
	C207.606903,121.103645 212.284622,119.968216 217.154327,118.530014 
	C217.762695,117.985558 218.179077,117.743874 218.785950,117.354248 
z"/>
<path fill="#C3621C" opacity="1.000000" stroke="none" 
	d="
M137.164978,66.907959 
	C137.365387,66.512810 137.856781,66.232994 138.640411,65.925751 
	C138.779678,66.225517 138.626740,66.552734 138.258560,67.059952 
	C137.847549,67.167747 137.651764,67.095528 137.164978,66.907959 
z"/>
<path fill="#F0D17B" opacity="1.000000" stroke="none" 
	d="
M192.981461,87.996887 
	C195.892960,90.788734 198.804459,93.580574 201.510468,96.666565 
	C200.518707,96.735916 199.619034,96.686050 198.962830,96.260628 
	C184.513199,86.892784 169.989075,77.632408 155.756393,67.944252 
	C153.198944,66.203392 151.864502,62.665844 150.223663,59.719257 
	C152.664658,60.199791 154.960770,60.689304 157.000778,61.697212 
	C159.448532,62.906559 161.677963,64.557800 164.160721,66.303238 
	C165.551605,67.394363 166.783707,68.199944 168.177979,69.274460 
	C169.226181,70.033493 170.112167,70.523598 171.128891,71.216476 
	C171.468796,71.671249 171.721634,71.866791 172.180557,72.274063 
	C173.229294,73.031456 174.115585,73.520676 175.001892,74.009895 
	C175.001892,74.009895 175.001892,74.007507 175.179657,74.308334 
	C177.909607,75.740913 180.461807,76.872673 183.014008,78.004440 
	C183.582932,78.497681 184.151855,78.990921 184.871902,80.093361 
	C187.675842,83.134003 190.328644,85.565445 192.981461,87.996887 
z"/>
<path fill="#E7B757" opacity="1.000000" stroke="none" 
	d="
M164.001923,66.017693 
	C161.677963,64.557800 159.448532,62.906559 157.000778,61.697212 
	C154.960770,60.689304 152.664658,60.199791 149.962814,59.852070 
	C148.909393,60.462669 148.375107,60.701878 147.631729,60.684082 
	C145.985291,58.615616 144.547958,56.804153 143.273560,54.805672 
	C143.733566,54.226143 144.030655,53.833630 144.327744,53.441109 
	C145.285095,52.692635 146.242447,51.944160 147.469879,51.057480 
	C147.739944,50.919273 148.009811,50.944668 148.113342,51.326523 
	C149.808960,53.142456 151.401031,54.576534 152.993118,56.010612 
	C152.993118,56.010609 153.000000,56.000225 153.154236,56.279716 
	C154.205826,57.044655 155.103180,57.530102 156.000519,58.015553 
	C156.282791,58.165134 156.526474,58.362389 157.020859,59.079639 
	C158.203003,60.040207 159.095871,60.528458 159.988739,61.016705 
	C159.988739,61.016705 160.000610,61.000782 160.152557,61.281700 
	C161.198151,62.053497 162.091812,62.544373 162.985458,63.035248 
	C163.246292,63.523472 163.507141,64.011688 163.886200,65.003189 
	C164.003586,65.676880 164.002762,65.847290 164.001923,66.017693 
z"/>
<path fill="#F1CC6E" opacity="1.000000" stroke="none" 
	d="
M193.359039,87.999199 
	C190.328644,85.565445 187.675842,83.134003 185.010452,80.344116 
	C188.628036,82.430206 192.258209,84.874748 195.944397,87.664856 
	C195.245804,88.007446 194.491211,88.004478 193.359039,87.999199 
z"/>
<path fill="#F1CC6E" opacity="1.000000" stroke="none" 
	d="
M182.848633,77.713943 
	C180.461807,76.872673 177.909607,75.740913 175.182419,74.315186 
	C178.867432,72.219193 180.699432,74.992561 182.848633,77.713943 
z"/>
<path fill="#F1CC6E" opacity="1.000000" stroke="none" 
	d="
M164.160721,66.303238 
	C164.002762,65.847290 164.003586,65.676880 164.010071,65.250870 
	C166.290344,66.103745 168.564957,67.212242 170.916367,68.663803 
	C170.993164,69.006859 170.980484,69.019547 170.609955,69.017799 
	C169.498230,69.012543 168.757004,69.009033 168.015793,69.005524 
	C166.783707,68.199944 165.551605,67.394363 164.160721,66.303238 
z"/>
<path fill="#F1CC6E" opacity="1.000000" stroke="none" 
	d="
M152.943176,55.673847 
	C151.401031,54.576534 149.808960,53.142456 148.240112,51.374477 
	C149.806641,52.472744 151.349945,53.904911 152.943176,55.673847 
z"/>
<path fill="#F1CC6E" opacity="1.000000" stroke="none" 
	d="
M172.018127,72.005882 
	C171.721634,71.866791 171.468796,71.671249 171.125397,70.883804 
	C170.987595,69.905418 170.984039,69.462479 170.980484,69.019547 
	C170.980484,69.019547 170.993164,69.006859 171.000061,68.999969 
	C172.295914,69.773323 173.584869,70.553566 174.558655,71.677132 
	C173.501678,72.015587 172.759903,72.010735 172.018127,72.005882 
z"/>
<path fill="#F1CC6E" opacity="1.000000" stroke="none" 
	d="
M199.918442,90.681694 
	C199.103622,90.524590 198.206818,90.038849 197.152481,89.276192 
	C197.942123,89.450539 198.889282,89.901802 199.918442,90.681694 
z"/>
<path fill="#F1CC6E" opacity="1.000000" stroke="none" 
	d="
M155.918701,57.686207 
	C155.103180,57.530102 154.205826,57.044655 153.150040,56.283085 
	C153.940018,56.456932 154.888458,56.906895 155.918701,57.686207 
z"/>
<path fill="#F1CC6E" opacity="1.000000" stroke="none" 
	d="
M159.910736,60.687119 
	C159.095871,60.528458 158.203003,60.040207 157.153656,59.275127 
	C157.942352,59.451374 158.887558,59.904453 159.910736,60.687119 
z"/>
<path fill="#F1CC6E" opacity="1.000000" stroke="none" 
	d="
M162.909531,62.702885 
	C162.091812,62.544373 161.198151,62.053497 160.145844,61.287312 
	C160.935989,61.464840 161.884796,61.917683 162.909531,62.702885 
z"/>
<path fill="#E7B757" opacity="1.000000" stroke="none" 
	d="
M172.180557,72.274063 
	C172.759903,72.010735 173.501678,72.015587 174.614182,72.026581 
	C174.989304,72.471855 174.993698,72.911003 174.999985,73.680023 
	C174.115585,73.520676 173.229294,73.031456 172.180557,72.274063 
z"/>
<path fill="#E7B757" opacity="1.000000" stroke="none" 
	d="
M148.512451,49.901299 
	C148.322037,49.711349 148.424194,49.470570 148.855499,49.216164 
	C148.980942,49.395607 148.854385,49.611580 148.512451,49.901299 
z"/>
<path fill="#E9B54D" opacity="1.000000" stroke="none" 
	d="
M284.951782,177.653549 
	C281.183502,175.322235 277.382568,172.613815 273.518158,169.999237 
	C272.347717,169.207306 271.001556,168.675049 269.372833,168.011414 
	C268.717651,167.851730 268.468506,167.651154 268.075043,166.854095 
	C262.258057,161.876587 256.628387,157.442169 250.998703,153.007751 
	C250.998703,153.007751 250.498779,153.001373 250.183243,152.693497 
	C249.245270,151.925583 248.622849,151.465530 248.000412,151.005493 
	C247.502533,150.748032 247.004669,150.490555 246.253021,149.740128 
	C245.998596,148.499329 245.997955,147.751495 246.247528,147.001068 
	C246.664551,146.996750 246.831360,146.995026 246.998169,146.993286 
	C259.215912,156.390640 271.441772,165.777557 283.627289,175.216568 
	C284.229584,175.683105 284.480347,176.603455 284.951782,177.653549 
z"/>
<path fill="#E7B757" opacity="1.000000" stroke="none" 
	d="
M246.999863,146.596771 
	C246.831360,146.995026 246.664551,146.996750 246.248871,146.999237 
	C246.000000,147.000000 245.997253,147.002518 245.839386,146.726273 
	C244.784500,145.967438 243.887497,145.484863 242.702820,144.839935 
	C240.613770,143.450241 238.812378,142.222900 236.994690,140.621445 
	C235.951111,137.135361 234.923843,134.023376 233.920197,130.954712 
	C233.943817,130.998047 233.913483,130.908630 234.280853,130.884033 
	C236.078278,130.575043 237.508316,130.290649 239.145508,130.299561 
	C241.954849,134.791550 244.557068,138.990234 247.159271,143.188904 
	C247.159271,143.188904 247.139572,143.502258 247.122040,143.656723 
	C247.070190,144.607544 247.035873,145.403900 246.999863,146.596771 
z"/>
<path fill="#E1AD4B" opacity="1.000000" stroke="none" 
	d="
M237.010986,140.995544 
	C238.812378,142.222900 240.613770,143.450241 242.787781,145.166626 
	C244.106018,146.104630 245.051636,146.553574 245.997253,147.002518 
	C245.997253,147.002518 246.000000,147.000000 245.998657,147.001831 
	C245.997955,147.751495 245.998596,148.499329 245.999207,149.621002 
	C241.872360,147.343765 237.635498,144.845856 233.657349,141.987823 
	C230.999939,140.078659 228.710587,137.657166 226.084595,135.157257 
	C226.660599,134.500824 227.408508,134.152115 228.659210,134.075577 
	C231.778336,136.563675 234.394669,138.779602 237.010986,140.995544 
z"/>
<path fill="#E1AD4B" opacity="1.000000" stroke="none" 
	d="
M251.055023,153.348907 
	C256.628387,157.442169 262.258057,161.876587 267.944000,166.651520 
	C262.370605,162.558060 256.740967,158.124069 251.055023,153.348907 
z"/>
<path fill="#E1AD4B" opacity="1.000000" stroke="none" 
	d="
M248.066010,151.309738 
	C248.622849,151.465530 249.245270,151.925583 249.933289,152.689758 
	C249.376465,152.533920 248.754044,152.073944 248.066010,151.309738 
z"/>
<path fill="#C3621C" opacity="1.000000" stroke="none" 
	d="
M143.110641,54.992683 
	C144.547958,56.804153 145.985291,58.615616 147.354523,60.835312 
	C145.842560,62.469105 144.398712,63.694675 142.714722,64.964790 
	C142.474594,65.009338 142.030823,65.213402 142.030823,65.213402 
	C141.316711,65.184814 140.602600,65.156235 139.530365,65.121857 
	C135.681519,63.113033 132.190765,61.109989 128.326157,58.704212 
	C127.631516,57.538151 127.310730,56.774822 126.989944,56.011494 
	C127.822090,52.834763 128.654251,49.658035 129.759720,46.248962 
	C130.055679,48.351852 130.078308,50.687088 130.116669,53.768272 
	C130.454895,55.012890 130.777405,55.511562 131.099930,56.010235 
	C132.256210,56.848377 133.412491,57.686520 135.166550,58.263756 
	C138.213104,56.999458 140.661865,55.996071 143.110641,54.992683 
z"/>
<path fill="#B93807" opacity="1.000000" stroke="none" 
	d="
M126.646019,56.110191 
	C127.310730,56.774822 127.631516,57.538151 128.000916,58.606705 
	C127.723434,60.975819 127.397324,63.039707 127.086960,65.500381 
	C126.117363,64.811691 125.132019,63.726215 124.100479,62.318176 
	C124.803543,60.066704 125.552818,58.137794 126.646019,56.110191 
z"/>
<path fill="#C3621C" opacity="1.000000" stroke="none" 
	d="
M130.931091,45.134789 
	C130.938339,45.280483 130.708496,45.535194 130.248764,45.905689 
	C130.243927,45.762249 130.468964,45.503025 130.931091,45.134789 
z"/>
<path fill="#F1CC6E" opacity="1.000000" stroke="none" 
	d="
M142.954849,64.920242 
	C144.398712,63.694675 145.842560,62.469105 147.563629,61.092312 
	C148.375107,60.701878 148.909393,60.462669 149.704529,60.090649 
	C151.864502,62.665844 153.198944,66.203392 155.756393,67.944252 
	C169.989075,77.632408 184.513199,86.892784 198.962830,96.260628 
	C199.619034,96.686050 200.518707,96.735916 201.675491,96.956573 
	C202.045990,96.952438 202.016693,96.972519 202.073486,97.321564 
	C203.449265,98.439377 204.768234,99.208138 206.087189,99.976898 
	C209.458359,102.629745 212.829514,105.282578 216.740662,108.231628 
	C218.053116,109.281326 218.825607,110.034813 219.598083,110.788307 
	C219.598083,110.788307 219.289261,110.883553 218.740921,110.937958 
	C211.972733,108.334648 205.376144,106.313225 199.605682,102.896530 
	C184.063080,93.693703 168.786621,84.029541 153.601898,74.242279 
	C149.679550,71.714142 146.484177,68.058144 142.954849,64.920242 
z"/>
<path fill="#C3621C" opacity="1.000000" stroke="none" 
	d="
M219.866440,110.934471 
	C218.825607,110.034813 218.053116,109.281326 217.077209,108.281265 
	C220.830261,104.309158 222.256256,99.675407 222.163681,94.327553 
	C222.145721,93.290283 223.506500,92.229141 224.616745,91.096268 
	C225.002197,91.013535 224.967606,91.002823 225.060547,91.238937 
	C225.451630,91.660927 225.749771,91.846802 226.047897,92.032677 
	C226.047897,92.032677 225.983505,92.017006 226.083450,92.210587 
	C226.449387,92.598373 226.715393,92.792572 226.981384,92.986771 
	C227.612579,93.620682 228.802719,94.268402 228.787445,94.886353 
	C228.653061,100.329147 228.304214,105.766663 228.014282,111.608231 
	C228.009750,112.010727 228.008240,112.018867 227.795624,112.133614 
	C227.323944,112.455872 227.140488,112.716583 227.024902,113.013542 
	C227.017197,112.996605 227.045807,113.028381 226.809204,113.203903 
	C226.393951,113.925026 226.215302,114.470634 226.033569,115.029617 
	C226.030487,115.042976 226.049316,115.069901 226.049316,115.069901 
	C225.361389,115.063858 224.673477,115.057816 223.646332,115.072800 
	C222.249664,113.756096 221.192230,112.418365 219.866440,110.934471 
z"/>
<path fill="#F0D17B" opacity="1.000000" stroke="none" 
	d="
M205.910767,99.697189 
	C204.768234,99.208138 203.449265,98.439377 202.080139,97.316025 
	C203.264771,97.780113 204.499573,98.598793 205.910767,99.697189 
z"/>
<path fill="#D97170" opacity="1.000000" stroke="none" 
	d="
M221.834717,119.829117 
	C223.212646,118.463165 224.590576,117.097214 226.008911,115.400581 
	C226.049316,115.069901 226.030487,115.042976 226.281296,114.863953 
	C226.703339,114.132744 226.874573,113.580559 227.045807,113.028381 
	C227.045807,113.028381 227.017197,112.996605 227.256470,112.922859 
	C227.773727,112.638519 227.944550,112.361771 228.008240,112.018867 
	C228.008240,112.018867 228.009750,112.010727 228.017334,112.022659 
	C228.746002,116.026360 228.874176,120.310898 233.118744,122.592758 
	C234.103851,123.122345 235.137405,123.561813 236.530502,124.394554 
	C236.972488,125.165001 237.032654,125.583641 236.915100,126.283020 
	C235.796082,128.012054 234.854782,129.460342 233.913483,130.908630 
	C233.913483,130.908630 233.943817,130.998047 233.580307,130.985565 
	C232.127869,131.325806 231.038940,131.678528 229.950012,132.031235 
	C226.471100,129.091858 222.992172,126.152496 219.184418,123.067719 
	C218.982254,122.513855 219.108932,122.105392 219.191299,121.377945 
	C219.146988,121.058960 219.081360,121.006294 219.371277,121.106537 
	C220.385712,120.747559 221.110214,120.288338 221.834717,119.829117 
z"/>
<path fill="#E9B54D" opacity="1.000000" stroke="none" 
	d="
M229.824036,132.253937 
	C231.038940,131.678528 232.127869,131.325806 233.556671,130.942230 
	C234.923843,134.023376 235.951111,137.135361 236.994690,140.621445 
	C234.394669,138.779602 231.778336,136.563675 228.974976,134.032379 
	C229.091293,133.303543 229.394669,132.890091 229.824036,132.253937 
z"/>
<path fill="#D97170" opacity="1.000000" stroke="none" 
	d="
M233.073212,68.445236 
	C233.870880,67.734062 234.641159,67.427757 235.727081,67.118263 
	C236.042740,69.822884 236.042740,72.530685 236.042740,75.238487 
	C236.339203,75.233398 236.635666,75.228310 236.932129,75.223221 
	C237.755219,73.821945 238.578308,72.420670 239.724854,71.013031 
	C238.944672,73.937195 237.841019,76.867737 236.412781,79.934677 
	C235.074066,76.330750 234.059937,72.590424 233.073212,68.445236 
z"/>
<path fill="#EFA7A8" opacity="1.000000" stroke="none" 
	d="
M241.412994,69.996872 
	C243.139740,69.499168 245.282288,68.999969 247.711151,68.748703 
	C245.941223,69.329552 243.885010,69.662460 241.412994,69.996872 
z"/>
<path fill="#A51611" opacity="1.000000" stroke="none" 
	d="
M237.092804,126.002274 
	C237.032654,125.583641 236.972488,125.165001 236.885223,124.429802 
	C234.695160,120.275284 232.361801,116.519287 230.456497,112.557419 
	C229.735077,111.057304 230.000946,109.082390 229.787003,107.039375 
	C231.562439,108.877777 232.993942,110.360031 234.787628,111.814331 
	C235.149811,111.786369 235.584274,111.887886 235.800812,111.941757 
	C237.844650,115.633224 239.671951,119.270828 241.766479,123.034729 
	C242.773804,123.718582 243.513885,124.276146 244.370941,125.248703 
	C244.313431,127.237167 243.687454,128.925903 244.053925,130.361267 
	C244.950333,133.872177 246.193375,137.311829 247.567703,140.669312 
	C247.851776,141.363342 249.311279,141.576218 250.229050,142.010864 
	C249.428055,142.365494 248.627060,142.720108 247.492676,143.131821 
	C244.557068,138.990234 241.954849,134.791550 239.150085,129.967728 
	C238.329285,128.229141 237.711044,127.115707 237.092804,126.002274 
z"/>
<path fill="#D97170" opacity="1.000000" stroke="none" 
	d="
M239.528961,67.475922 
	C239.547195,67.512970 239.510727,67.438881 239.528961,67.475922 
z"/>
<path fill="#E7B757" opacity="1.000000" stroke="none" 
	d="
M226.845947,92.782990 
	C226.715393,92.792572 226.449387,92.598373 226.074738,92.178627 
	C226.262421,92.104469 226.510559,92.313179 226.845947,92.782990 
z"/>
<path fill="#E7B757" opacity="1.000000" stroke="none" 
	d="
M225.924225,91.804527 
	C225.749771,91.846802 225.451630,91.660927 225.065796,91.220718 
	C225.252243,91.169716 225.526398,91.373047 225.924225,91.804527 
z"/>
<path fill="#D54D49" opacity="1.000000" stroke="none" 
	d="
M250.457092,142.022156 
	C249.311279,141.576218 247.851776,141.363342 247.567703,140.669312 
	C246.193375,137.311829 244.950333,133.872177 244.053925,130.361267 
	C243.687454,128.925903 244.313431,127.237167 244.688538,125.395264 
	C246.361816,126.339531 247.834457,127.552246 249.561646,128.987518 
	C250.737915,131.667755 251.659637,134.125443 252.891754,136.813538 
	C252.739182,138.447159 252.276215,139.850372 251.702332,141.614426 
	C251.591415,141.975266 251.136276,141.973206 251.136276,141.973206 
	C251.136276,141.973206 250.685150,142.033447 250.457092,142.022156 
z"/>
<path fill="#A51611" opacity="1.000000" stroke="none" 
	d="
M143.273560,54.805672 
	C140.661865,55.996071 138.213104,56.999458 135.398834,58.042999 
	C135.787262,54.782288 136.541183,51.481422 137.908936,48.230843 
	C139.342270,48.863514 140.161758,49.445904 140.981262,50.028294 
	C141.961945,50.972843 142.942627,51.917393 144.125519,53.151527 
	C144.030655,53.833630 143.733566,54.226143 143.273560,54.805672 
z"/>
<path fill="#C15411" opacity="1.000000" stroke="none" 
	d="
M141.273087,49.857224 
	C140.161758,49.445904 139.342270,48.863514 138.262863,48.125648 
	C138.491257,46.810799 138.664673,45.258465 139.527802,44.566830 
	C141.971924,42.608288 144.698380,41.002052 147.556412,39.095055 
	C149.543747,44.542324 144.381287,46.533333 141.273087,49.857224 
z"/>
<path fill="#C15411" opacity="1.000000" stroke="none" 
	d="
M131.265045,55.811405 
	C130.777405,55.511562 130.454895,55.012890 130.126770,54.204826 
	C130.557510,54.467815 130.993851,55.040195 131.265045,55.811405 
z"/>
<path fill="#EFC461" opacity="1.000000" stroke="none" 
	d="
M142.714722,64.964790 
	C146.484177,68.058144 149.679550,71.714142 153.601898,74.242279 
	C168.786621,84.029541 184.063080,93.693703 199.605682,102.896530 
	C205.376144,106.313225 211.972733,108.334648 218.589447,110.994247 
	C217.013733,111.501060 214.626358,112.977623 213.140137,112.343185 
	C206.603928,109.552986 200.074371,106.571472 194.006943,102.893051 
	C178.129059,93.266953 162.516388,83.204269 146.742355,73.405197 
	C143.876053,71.624611 141.554092,69.750420 142.024384,65.592819 
	C142.030823,65.213402 142.474594,65.009338 142.714722,64.964790 
z"/>
<path fill="#A51611" opacity="1.000000" stroke="none" 
	d="
M221.641785,119.656052 
	C221.110214,120.288338 220.385712,120.747559 219.340790,121.135529 
	C219.829865,120.537178 220.639359,120.010078 221.641785,119.656052 
z"/>
<path fill="#E7B757" opacity="1.000000" stroke="none" 
	d="
M170.609955,69.017799 
	C170.984039,69.462479 170.987595,69.905418 170.994659,70.681023 
	C170.112167,70.523598 169.226181,70.033493 168.177979,69.274460 
	C168.757004,69.009033 169.498230,69.012543 170.609955,69.017799 
z"/>
<path fill="#E9B54D" opacity="1.000000" stroke="none" 
	d="
M236.915100,126.283020 
	C237.711044,127.115707 238.329285,128.229141 238.942963,129.674408 
	C237.508316,130.290649 236.078278,130.575043 234.280853,130.884033 
	C234.854782,129.460342 235.796082,128.012054 236.915100,126.283020 
z"/>
<path fill="#E9B54D" opacity="1.000000" stroke="none" 
	d="
M245.839386,146.726273 
	C245.051636,146.553574 244.106018,146.104630 243.075439,145.328979 
	C243.887497,145.484863 244.784500,145.967438 245.839386,146.726273 
z"/>
<path fill="#C34624" opacity="1.000000" stroke="none" 
	d="
M226.809204,113.203903 
	C226.874573,113.580559 226.703339,114.132744 226.284363,114.850586 
	C226.215302,114.470634 226.393951,113.925026 226.809204,113.203903 
z"/>
<path fill="#C34624" opacity="1.000000" stroke="none" 
	d="
M227.795624,112.133614 
	C227.944550,112.361771 227.773727,112.638519 227.264175,112.939796 
	C227.140488,112.716583 227.323944,112.455872 227.795624,112.133614 
z"/>
</svg>